PathFileType	4	(X/Y/Z)	C:/Users/beibeiliu/ov580/test_trc/User3\sequence.19_training_dense_left.trc
DataRate	CameraRate	NumFrames	NumMarkers	Units	OrigDataRate	OrigDataStartFrame	OrigNumFrames
120	120	15	19	mm	120	54	80
Frame#	Time	ThumbCMC			ThumbMCP			ThumbIP			ThumbTip			IndexMCP			IndexPIP			IndexTip			MiddleMCP			MiddlePIP			MiddleTip			RingMCP			RingPIP			RingTip			PinkyMCP			PinkyPIP			PinkyTip			BackHand1			BackHand2			BackHand3	
		X0	Y0	Z0	X1	Y1	Z1	X2	Y2	Z2	X3	Y3	Z3	X4	Y4	Z4	X5	Y5	Z5	X6	Y6	Z6	X7	Y7	Z7	X8	Y8	Z8	X9	Y9	Z9	X10	Y10	Z10	X11	Y11	Z11	X12	Y12	Z12	X13	Y13	Z13	X14	Y14	Z14	X15	Y15	Z15	X16	Y16	Z16	X17	Y17	Z17	X18	Y18	Z18	
53	0.441667	-166.182	-18.638	22.3999	-161.243	-6.76067	-13.0091	-154.656	0.306995	-43.1108	-139.857	-0.744694	-60.0224	-161.504	-67.3488	-38.9078	-153.766	-61.8253	-71.1357	-144.181	-41.5929	-86.848	-149.317	-79.1226	-45.5243	-138.685	-69.048	-75.5545	-122.849	-36.0288	-81.4877	-132.363	-80.3737	-34.4769	-121.193	-75.6384	-61.5875	-110.985	-49.9216	-74.7804	-113.891	-77.1346	-18.9733	-111.059	-74.5091	-46.6721	-103.472	-59.0198	-66.4192	-131.745	-76.8612	23.6792	-131.788	-68.8111	49.0922	-165.207	-60.2254	26.2848	
54	0.45	-174.014	-16.1504	20.1476	-168.27	-7.08526	-9.72519	-165.937	-3.14739	-42.0189	-154.947	-7.94105	-61.875	-186.851	-67.3838	-32.8978	-181.523	-65.1334	-67.9113	-170.219	-48.751	-84.0265	-175.109	-84.0626	-36.1732	-170.671	-75.1674	-70.0497	-149.858	-45.9102	-80.7964	-157.188	-87.8395	-27.9843	-150.722	-85.5966	-60.0622	-139.246	-61.9766	-73.3651	-140.972	-86.5565	-19.2654	-140.762	-85.9183	-44.7379	-133.444	-69.895	-64.8794	-152.758	-78.739	25.0997	-143.795	-67.2495	51.7815	-178.445	-52.7636	32.7307	
55	0.458333	-171.797	-8.08716	23.5849	-169.447	-0.334246	-11.44	-167.379	-1.55945	-39.5746	-162.436	-5.31446	-65.3772	-205.235	-54.0485	-24.0187	-203.666	-55.2103	-58.3932	-188.471	-41.9855	-79.5861	-202.16	-71.0289	-28.8243	-199.533	-67.201	-63.9224	-172.049	-49.57	-77.0917	-185.305	-78.5507	-20.4689	-180.706	-80.7009	-56.7905	-162.741	-62.5701	-70.3903	-165.216	-85.7562	-13.7205	-170.192	-84.9228	-38.2448	-156.294	-72.0568	-64.7382	-171.271	-68.8315	28.6866	-160.536	-61.4016	52.554	-186.95	-41.2765	41.0565	
56	0.466667	-165.653	3.42277	25.3106	-161.596	11.5345	-7.76974	-162.301	13.5585	-38.0141	-158.895	6.23829	-60.7207	-215.561	-28.461	-21.4215	-216.354	-27.5416	-53.1423	-199.962	-19.2742	-74.4558	-216.799	-47.4516	-25.7422	-212.277	-44.9427	-59.6321	-179.555	-34.0246	-74.0722	-200.572	-60.2146	-17.8502	-199.307	-61.4758	-53.2004	-176.317	-46.1372	-68.2025	-181.814	-70.2885	-9.38804	-190	-70.5582	-35.1443	-175.91	-62.1742	-61.9849	-183.581	-61.1558	27.9375	-166.243	-56.5406	56.7358	-188.5	-24.2805	40.0064	
57	0.475	-147.476	9.79377	32.2792	-143.545	17.6713	-0.382158	-145.47	19.8589	-33.039	-145.371	13.5442	-54.6384	-208.544	2.61883	-19.8448	-208.985	2.70919	-50.0144	-188.854	7.59012	-71.4994	-216.167	-16.8008	-22.122	-215.113	-13.2021	-53.0143	-177.064	-11.8	-71.458	-208.187	-32.4689	-20.0351	-207.123	-30.7092	-50.7705	-182.156	-27.4337	-65.9815	-192.295	-51.4698	-10.5919	-198.592	-48.2694	-39.3455	-185.997	-43.091	-61.8032	-185.179	-42.6918	30.0826	-171.478	-41.624	55.9441	-179.876	-9.60417	45.4363	
58	0.483333	-127.759	16.125	35.5912	-122.64	20.9293	2.3709	-120.229	27.6191	-25.7004	-124.657	22.0655	-52.5719	-187.981	26.6083	-14.4956	-189.089	30.1448	-46.0935	-165.037	27.1532	-70.2428	-200.307	10.7829	-19.1534	-195.055	16.6626	-55.1453	-161.29	8.49175	-69.8618	-198.294	-7.93118	-16.9015	-196.717	-4.37896	-50.1847	-172.485	-6.65071	-65.3835	-191.453	-29.4432	-12.264	-194.445	-21.1419	-37.1554	-177.458	-19.2587	-62.1865	-182.698	-20.065	28.9166	-168.237	-32.8238	55.5972	-168.115	3.4673	45.764	
59	0.491667	-106.716	12.9337	38.3521	-99.1112	17.5105	4.73075	-95.0139	23.236	-23.7784	-101.659	18.4224	-49.3589	-159.589	46.7389	-17.1989	-153.493	50.9125	-48.1707	-137.521	39.4782	-65.304	-177.304	34.3475	-21.8106	-169.679	40.1834	-51.857	-141.371	18.7047	-67.5239	-181.052	15.8478	-20.4525	-173.963	19.687	-51.11	-148.733	4.98304	-66.7707	-178.736	-9.33669	-12.7123	-178.011	0.351351	-42.6499	-162.072	-2.17373	-59.472	-172.367	-9.46429	31.1125	-164.344	-21.3659	54.485	-147.836	16.659	47.4756	
60	0.5	-88.6739	7.54692	40.1023	-78.3648	9.44211	7.86125	-71.1069	14.216	-25.5152	-79.1076	10.1605	-46.3547	-125.888	50.6711	-13.4978	-121.714	54.4418	-46.6117	-103.18	35.5387	-68.0182	-142.906	49.7143	-21.5671	-136.985	49.823	-52.4972	-109.454	21.6135	-68.4008	-155.9	30.6801	-21.4431	-149.803	30.0424	-52.8561	-128.221	13.2329	-65.7527	-160.492	8.82755	-14.8709	-159.152	14.758	-42.0864	-144.531	8.32595	-63.5981	-155.531	9.99997	26.6379	-151.491	-7.85983	54.7491	-129.982	18.6957	45.0314	
61	0.508333	-74.9036	4.13063	39.1545	-60.6099	0.562515	8.74086	-52.849	-0.361153	-20.863	-59.1833	-3.62354	-48.0099	-103.713	46.9925	-19.1919	-96.4395	46.7124	-52.8112	-79.0825	27.5835	-70.2479	-119.134	49.0957	-29.2398	-111.091	42.8177	-60.5361	-92.2608	11.5548	-70.9222	-137.065	31.915	-25.5556	-127.346	31.2083	-56.2092	-112.266	3.98688	-68.2913	-147.847	15.0638	-20.2175	-139.783	18.2059	-46.1743	-124.582	6.23127	-63.1819	-141.541	16.9623	22.8071	-140.918	3.27393	49.9019	-109.787	26.0353	45.9829	
62	0.516667	-65.3924	1.88886	40.345	-50.6997	-4.83686	7.93497	-43.8352	-10.8463	-16.5841	-48.563	-16.2126	-44.4489	-87.7848	40.1113	-28.7782	-81.4741	35.4559	-57.8732	-70.8858	8.98933	-75.2265	-104.85	40.5252	-33.9977	-95.087	31.4643	-66.9422	-85.735	-1.88807	-76.8287	-122.876	28.3374	-31.4292	-114.569	24.1276	-59.4995	-101.796	-6.96095	-70.6016	-135.039	11.9134	-20.5826	-129.183	11.2377	-47.7267	-116.058	-4.61251	-67.3022	-127.971	20.1943	25.805	-128.278	10.5217	50.2592	-98.2535	26.8885	40.1181	
63	0.525	-60.8005	1.13312	40.7136	-44.2614	-7.49924	13.174	-36.4331	-14.4036	-13.4935	-38.8626	-22.8716	-38.737	-79.3217	31.3185	-30.7679	-73.8702	22.8126	-62.0549	-64.412	-0.615202	-78.401	-99.5677	31.7711	-38.7291	-91.8134	22.6908	-67.4755	-78.8554	-11.5008	-80.1326	-115.581	20.7954	-29.4057	-109.037	13.2017	-61.162	-100.936	-14.8284	-72.5238	-127.59	6.35775	-17.3655	-125.735	3.02987	-46.0507	-110.527	-12.114	-64.5731	-119.736	19.72	23.0876	-127.483	12.9994	51.8798	-90.6804	28.7624	36.4153	
64	0.533333	-59.9411	0.29609	41.3329	-39.8198	-9.88465	19.8543	-26.7109	-15.6096	-11.9772	-28.6642	-25.1916	-31.7802	-75.157	24.3854	-33.5308	-68.2922	15.6353	-63.3892	-60.0375	-2.53901	-79.0179	-94.3276	26.0354	-38.1309	-91.0749	13.3148	-69.826	-82.6847	-17.7955	-85.9984	-115.394	15.4871	-31.9403	-110.796	7.27116	-59.9793	-100.948	-19.5656	-75.4799	-125.064	1.44083	-17.8373	-125.28	-2.94192	-44.8455	-120.159	-19.6733	-64.0332	-118.38	17.4826	22.6966	-121.154	12.6995	51.1267	-86.1863	23.5318	36.1735	
65	0.541667	-57.371	-1.99964	42.1758	-37.3176	-9.7972	17.0926	-23.6364	-18.3749	-2.17192	-17.1913	-25.9288	-25.7495	-71.2791	18.0184	-30.0231	-66.6582	10.1183	-62.6143	-60.783	-6.65297	-85.4343	-94.2008	19.3144	-39.19	-95.9891	8.56064	-69.7143	-92.7699	-14.612	-91.1609	-111.879	10.1467	-32.0596	-113.556	1.54806	-60.5805	-112.095	-20.6157	-79.6827	-128.378	-2.06305	-19.211	-134.661	-9.36942	-41.9177	-126.319	-21.4052	-63.3959	-116.304	14.6984	24.174	-121.708	15.6836	48.7115	-87.083	22.0583	35.5031	
66	0.55	-55.8827	-2.78872	41.6753	-35.439	-9.27251	22.2492	-19.9772	-16.3975	-1.9823	-8.08534	-23.992	-21.1226	-71.9245	12.95	-30.9958	-66.5149	8.58794	-61.2123	-61.8153	-3.08776	-86.436	-100.661	14.9902	-40.1312	-97.9667	10.3268	-66.1932	-100.407	-10.515	-97.4275	-119.359	5.98861	-31.2517	-125.801	0.666191	-57.3942	-124.691	-13.9581	-79.4308	-136.501	-4.83125	-12.0374	-141.874	-10.3591	-36.5359	-147.49	-23.8701	-57.9297	-116.451	15.8312	24.2543	-120.015	14.7808	49.3347	-85.7768	21.0047	34.2769	
67	0.558333	-57.1039	-2.92305	40.7842	-38.7373	-10.5391	22.3609	-18.8387	-15.4843	-0.999143	-10.3027	-23.2893	-21.3733	-78.9957	9.69535	-32.721	-71.0488	7.02127	-59.7487	-66.1438	1.20747	-85.3522	-106.283	11.6158	-37.9915	-107.333	8.10218	-67.4783	-110.399	-2.73292	-96.0773	-125.944	4.52528	-28.8122	-132.748	-0.539515	-56.5073	-136.339	-11.0533	-80.0547	-144.853	-5.73247	-13.5917	-154.232	-11.8999	-34.417	-158.883	-22.7456	-56.5285	-120.31	16.4567	24.2041	-119.64	15.1047	49.3387	-87.5047	18.5713	32.526	
